<svg width="20" height="20" viewBox="0 0 20 20" fill="none" xmlns="http://www.w3.org/2000/svg">
<path d="M3.65829 10.5962C3.65829 7.9754 4.10117 6.44723 4.99917 5.5435C5.89717 4.63975 7.41551 4.19418 10.0191 4.19418V2.81805C7.33979 2.81805 5.33589 3.25856 4.03239 4.57038C2.72889 5.88222 2.29102 7.89912 2.29102 10.5962H3.65829ZM10.0191 4.19418C12.6232 4.19418 14.1417 4.63976 15.0398 5.54352C15.9379 6.44725 16.3808 7.97539 16.3808 10.5962H17.748C17.748 7.89913 17.3102 5.8822 16.0066 4.57036C14.7029 3.25856 12.6989 2.81805 10.0191 2.81805V4.19418ZM16.3808 10.5962C16.3808 13.2171 15.9379 14.7453 15.0398 15.649C14.1417 16.5528 12.6232 16.9983 10.0191 16.9983V18.3745C12.6989 18.3745 14.7029 17.9339 16.0066 16.6221C17.3102 15.3103 17.748 13.2933 17.748 10.5962H16.3808ZM10.0191 16.9983C7.41551 16.9983 5.89717 16.5528 4.99917 15.649C4.10117 14.7453 3.65829 13.2171 3.65829 10.5962H2.29102C2.29102 13.2933 2.72889 15.3103 4.03239 16.6221C5.33589 17.9339 7.33979 18.3745 10.0191 18.3745V16.9983Z" fill="#1AADB6"/>
<path d="M3.18364 6.88727C2.80607 6.88727 2.5 7.19532 2.5 7.57533C2.5 7.95534 2.80607 8.2634 3.18364 8.2634V6.88727ZM16.8625 8.2634C17.24 8.2634 17.5461 7.95534 17.5461 7.57533C17.5461 7.19532 17.24 6.88727 16.8625 6.88727V8.2634ZM3.18364 8.2634H16.8625V6.88727H3.18364V8.2634Z" fill="#1AADB6"/>
<path d="M12.9893 9.89716C12.6117 9.89716 12.3057 10.2052 12.3057 10.5852C12.3057 10.9652 12.6117 11.2733 12.9893 11.2733V9.89716ZM12.9961 11.2733C13.3737 11.2733 13.6798 10.9652 13.6798 10.5852C13.6798 10.2052 13.3737 9.89716 12.9961 9.89716V11.2733ZM12.9893 11.2733H12.9961V9.89716H12.9893V11.2733Z" fill="#1AADB6"/>
<path d="M9.6475 9.89716C9.26994 9.89716 8.96387 10.2052 8.96387 10.5852C8.96387 10.9652 9.26994 11.2733 9.6475 11.2733V9.89716ZM9.65434 11.2733C10.0319 11.2733 10.338 10.9652 10.338 10.5852C10.338 10.2052 10.0319 9.89716 9.65434 9.89716V11.2733ZM9.6475 11.2733H9.65434V9.89716H9.6475V11.2733Z" fill="#1AADB6"/>
<path d="M6.29887 9.89716C5.92131 9.89716 5.61523 10.2052 5.61523 10.5852C5.61523 10.9652 5.92131 11.2733 6.29887 11.2733V9.89716ZM6.30571 11.2733C6.68327 11.2733 6.98935 10.9652 6.98935 10.5852C6.98935 10.2052 6.68327 9.89716 6.30571 9.89716V11.2733ZM6.29887 11.2733H6.30571V9.89716H6.29887V11.2733Z" fill="#1AADB6"/>
<path d="M12.9893 12.842C12.6117 12.842 12.3057 13.1501 12.3057 13.5301C12.3057 13.9101 12.6117 14.2182 12.9893 14.2182V12.842ZM12.9961 14.2182C13.3737 14.2182 13.6798 13.9101 13.6798 13.5301C13.6798 13.1501 13.3737 12.842 12.9961 12.842V14.2182ZM12.9893 14.2182H12.9961V12.842H12.9893V14.2182Z" fill="#1AADB6"/>
<path d="M9.6475 12.842C9.26994 12.842 8.96387 13.1501 8.96387 13.5301C8.96387 13.9101 9.26994 14.2182 9.6475 14.2182V12.842ZM9.65434 14.2182C10.0319 14.2182 10.338 13.9101 10.338 13.5301C10.338 13.1501 10.0319 12.842 9.65434 12.842V14.2182ZM9.6475 14.2182H9.65434V12.842H9.6475V14.2182Z" fill="#1AADB6"/>
<path d="M6.29887 12.842C5.92131 12.842 5.61523 13.1501 5.61523 13.5301C5.61523 13.9101 5.92131 14.2182 6.29887 14.2182V12.842ZM6.30571 14.2182C6.68327 14.2182 6.98935 13.9101 6.98935 13.5301C6.98935 13.1501 6.68327 12.842 6.30571 12.842V14.2182ZM6.29887 14.2182H6.30571V12.842H6.29887V14.2182Z" fill="#1AADB6"/>
<path d="M13.3683 2.3965C13.3683 2.01649 13.0622 1.70844 12.6846 1.70844C12.3071 1.70844 12.001 2.01649 12.001 2.3965H13.3683ZM12.001 4.89035C12.001 5.27037 12.3071 5.57842 12.6846 5.57842C13.0622 5.57842 13.3683 5.27037 13.3683 4.89035H12.001ZM12.001 2.3965V4.89035H13.3683V2.3965H12.001Z" fill="#1AADB6"/>
<path d="M7.28525 2.3965C7.28525 2.01649 6.97917 1.70844 6.60161 1.70844C6.22404 1.70844 5.91797 2.01649 5.91797 2.3965H7.28525ZM5.91797 4.89035C5.91797 5.27037 6.22404 5.57842 6.60161 5.57842C6.97917 5.57842 7.28525 5.27037 7.28525 4.89035H5.91797ZM5.91797 2.3965V4.89035H7.28525V2.3965H5.91797Z" fill="#1AADB6"/>
</svg>
