<svg width="267" height="26" viewBox="0 0 267 26" fill="none" xmlns="http://www.w3.org/2000/svg">
<path d="M21.2381 15.7696C20.8925 16.1045 20.7338 16.5888 20.8124 17.0636L21.9985 23.6276C22.0986 24.184 21.8638 24.747 21.3982 25.0685C20.9419 25.4021 20.3348 25.4421 19.8372 25.1753L13.9282 22.0934C13.7228 21.984 13.4947 21.9253 13.2612 21.9186H12.8996C12.7742 21.9373 12.6515 21.9773 12.5394 22.0387L6.62919 25.1352C6.33701 25.282 6.00614 25.3341 5.68194 25.282C4.89214 25.1325 4.36515 24.3801 4.49456 23.5863L5.68194 17.0223C5.76066 16.5433 5.6019 16.0564 5.25636 15.7162L0.438767 11.0467C0.0358563 10.6558 -0.104229 10.0688 0.079883 9.53911C0.258658 9.01079 0.714935 8.62523 1.26594 8.53851L7.89662 7.57659C8.40092 7.52456 8.84386 7.21771 9.07067 6.7641L11.9925 0.773802C12.0618 0.640388 12.1512 0.517647 12.2592 0.413584L12.3793 0.320194C12.442 0.250819 12.5141 0.19345 12.5941 0.146756L12.7395 0.0933899L12.9664 0H13.528C14.0297 0.0520315 14.4713 0.352214 14.7021 0.800485L17.6625 6.7641C17.876 7.20037 18.2909 7.50322 18.7699 7.57659L25.4006 8.53851C25.9609 8.61855 26.4292 9.00546 26.6146 9.53911C26.7894 10.0741 26.6386 10.6612 26.2277 11.0467L21.2381 15.7696Z" fill="#FFD300"/>
<path d="M81.2745 15.7696C80.9289 16.1045 80.7702 16.5888 80.8488 17.0636L82.0349 23.6276C82.135 24.184 81.9002 24.747 81.4346 25.0685C80.9783 25.4021 80.3712 25.4421 79.8736 25.1753L73.9646 22.0934C73.7592 21.984 73.5311 21.9253 73.2976 21.9186H72.936C72.8106 21.9373 72.6879 21.9773 72.5758 22.0387L66.6656 25.1352C66.3734 25.282 66.0425 25.3341 65.7183 25.282C64.9285 25.1325 64.4015 24.3801 64.531 23.5863L65.7183 17.0223C65.7971 16.5433 65.6383 16.0564 65.2928 15.7162L60.4752 11.0467C60.0723 10.6558 59.9322 10.0688 60.1163 9.53911C60.2951 9.01079 60.7513 8.62523 61.3023 8.53851L67.933 7.57659C68.4373 7.52456 68.8803 7.21771 69.1071 6.7641L72.0289 0.773802C72.0982 0.640388 72.1876 0.517647 72.2956 0.413584L72.4157 0.320194C72.4784 0.250819 72.5505 0.19345 72.6305 0.146756L72.7759 0.0933899L73.0028 0H73.5644C74.0661 0.0520315 74.5077 0.352214 74.7385 0.800485L77.6989 6.7641C77.9124 7.20037 78.3273 7.50322 78.8063 7.57659L85.437 8.53851C85.9973 8.61855 86.4656 9.00546 86.651 9.53911C86.8258 10.0741 86.675 10.6612 86.2641 11.0467L81.2745 15.7696Z" fill="#FFD300"/>
<path d="M141.311 15.7696C140.965 16.1045 140.807 16.5888 140.885 17.0636L142.071 23.6276C142.171 24.184 141.937 24.747 141.471 25.0685C141.015 25.4021 140.408 25.4421 139.91 25.1753L134.001 22.0934C133.796 21.984 133.567 21.9253 133.334 21.9186H132.972C132.847 21.9373 132.724 21.9773 132.612 22.0387L126.702 25.1352C126.41 25.282 126.079 25.3341 125.755 25.282C124.965 25.1325 124.438 24.3801 124.567 23.5863L125.755 17.0223C125.833 16.5433 125.675 16.0564 125.329 15.7162L120.512 11.0467C120.109 10.6558 119.969 10.0688 120.153 9.53911C120.331 9.01079 120.788 8.62523 121.339 8.53851L127.969 7.57659C128.474 7.52456 128.917 7.21771 129.143 6.7641L132.065 0.773802C132.135 0.640388 132.224 0.517647 132.332 0.413584L132.452 0.320194C132.515 0.250819 132.587 0.19345 132.667 0.146756L132.812 0.0933899L133.039 0H133.601C134.102 0.0520315 134.544 0.352214 134.775 0.800485L137.735 6.7641C137.949 7.20037 138.364 7.50322 138.843 7.57659L145.473 8.53851C146.034 8.61855 146.502 9.00546 146.687 9.53911C146.862 10.0741 146.711 10.6612 146.3 11.0467L141.311 15.7696Z" fill="#FFD300"/>
<path d="M201.347 15.7696C201.002 16.1045 200.843 16.5888 200.922 17.0636L202.108 23.6276C202.208 24.184 201.973 24.747 201.507 25.0685C201.051 25.4021 200.444 25.4421 199.946 25.1753L194.037 22.0934C193.832 21.984 193.604 21.9253 193.37 21.9186H193.009C192.883 21.9373 192.761 21.9773 192.649 22.0387L186.738 25.1352C186.446 25.282 186.115 25.3341 185.791 25.282C185.001 25.1325 184.474 24.3801 184.604 23.5863L185.791 17.0223C185.87 16.5433 185.711 16.0564 185.366 15.7162L180.548 11.0467C180.145 10.6558 180.005 10.0688 180.189 9.53911C180.368 9.01079 180.824 8.62523 181.375 8.53851L188.006 7.57659C188.51 7.52456 188.953 7.21771 189.18 6.7641L192.102 0.773802C192.171 0.640388 192.26 0.517647 192.368 0.413584L192.488 0.320194C192.551 0.250819 192.623 0.19345 192.703 0.146756L192.849 0.0933899L193.076 0H193.637C194.139 0.0520315 194.58 0.352214 194.811 0.800485L197.772 6.7641C197.985 7.20037 198.4 7.50322 198.879 7.57659L205.51 8.53851C206.07 8.61855 206.538 9.00546 206.724 9.53911C206.899 10.0741 206.748 10.6612 206.337 11.0467L201.347 15.7696Z" fill="#FFD300"/>
<path d="M255.713 2.9875L256.384 2.65158V2.65154L255.713 2.9875ZM258.151 7.85811L258.823 7.52266L258.823 7.5222L258.151 7.85811ZM259.386 8.74455L259.493 8.00175L259.493 8.0017L259.386 8.74455ZM264.84 9.52961L264.948 8.78686L264.947 8.78681L264.84 9.52961ZM265.749 12.2931L265.229 11.7516L265.229 11.7519L265.749 12.2931ZM261.805 16.0827L261.285 15.5415L261.285 15.5417L261.805 16.0827ZM261.333 17.5171L262.072 17.3886V17.3884L261.333 17.5171ZM262.263 22.8673L263.003 22.7392L263.003 22.7387L262.263 22.8673ZM259.88 24.5744L260.226 23.9085L260.225 23.9082L259.88 24.5744ZM255.005 22.0466L254.659 22.7128L254.659 22.7129L255.005 22.0466ZM253.475 22.0466L253.131 21.3801L253.13 21.3804L253.475 22.0466ZM248.601 24.5744L248.255 23.9082L248.255 23.9085L248.601 24.5744ZM246.218 22.8673L246.958 22.9962L246.958 22.9958L246.218 22.8673ZM247.148 17.5171L246.408 17.3884L246.408 17.3888L247.148 17.5171ZM246.675 16.0827L247.196 15.5417L247.195 15.5415L246.675 16.0827ZM242.731 12.2931L243.251 11.7519L243.251 11.7516L242.731 12.2931ZM243.64 9.52961L243.533 8.78681L243.533 8.78686L243.64 9.52961ZM249.094 8.74455L248.987 8.0017L248.987 8.00175L249.094 8.74455ZM250.33 7.85811L249.659 7.52235L249.659 7.52266L250.33 7.85811ZM252.767 2.9875L252.096 2.65154L252.096 2.65174L252.767 2.9875ZM255.042 3.32341L257.48 8.19403L258.823 7.5222L256.384 2.65158L255.042 3.32341ZM257.48 8.19358C257.83 8.89412 258.504 9.37608 259.28 9.4874L259.493 8.0017C259.199 7.95959 258.951 7.77842 258.823 7.52266L257.48 8.19358ZM259.28 9.48735L264.733 10.2724L264.947 8.78681L259.493 8.00175L259.28 9.48735ZM264.733 10.2724C265.477 10.3798 265.742 11.2593 265.229 11.7516L266.268 12.8346C267.706 11.4553 266.898 9.0685 264.948 8.78686L264.733 10.2724ZM265.229 11.7519L261.285 15.5415L262.325 16.6238L266.269 12.8342L265.229 11.7519ZM261.285 15.5417C260.719 16.0859 260.458 16.8719 260.593 17.646L262.072 17.3884C262.024 17.1101 262.116 16.8248 262.325 16.6237L261.285 15.5417ZM260.593 17.6458L261.524 22.996L263.003 22.7387L262.072 17.3886L260.593 17.6458ZM261.524 22.9954C261.643 23.6853 260.899 24.2585 260.226 23.9085L259.534 25.2403C261.269 26.1426 263.342 24.6963 263.003 22.7392L261.524 22.9954ZM260.225 23.9082L255.35 21.3804L254.659 22.7129L259.534 25.2406L260.225 23.9082ZM255.351 21.3805C254.656 21.02 253.826 21.0204 253.131 21.3801L253.82 22.7132C254.084 22.5769 254.398 22.5774 254.659 22.7128L255.351 21.3805ZM253.13 21.3804L248.255 23.9082L248.946 25.2406L253.821 22.7129L253.13 21.3804ZM248.255 23.9085C247.581 24.2587 246.838 23.6851 246.958 22.9962L245.479 22.7385C245.138 24.6966 247.212 26.1424 248.947 25.2403L248.255 23.9085ZM246.958 22.9958L247.887 17.6456L246.408 17.3888L245.479 22.7389L246.958 22.9958ZM247.887 17.646C248.022 16.8719 247.761 16.0859 247.196 15.5417L246.155 16.6237C246.364 16.8248 246.457 17.1101 246.408 17.3884L247.887 17.646ZM247.195 15.5415L243.251 11.7519L242.211 12.8342L246.155 16.6238L247.195 15.5415ZM243.251 11.7516C242.738 11.2593 243.003 10.3798 243.747 10.2724L243.533 8.78686C241.582 9.0685 240.774 11.4553 242.212 12.8346L243.251 11.7516ZM243.747 10.2724L249.201 9.48735L248.987 8.00175L243.533 8.78681L243.747 10.2724ZM249.201 9.4874C249.976 9.37621 250.651 8.8949 251.002 8.19358L249.659 7.52266C249.532 7.77764 249.282 7.95946 248.987 8.0017L249.201 9.4874ZM251.001 8.19388L253.438 3.32326L252.096 2.65174L249.659 7.52235L251.001 8.19388ZM253.438 3.32345C253.764 2.67182 254.716 2.67182 255.042 3.32345L256.384 2.65154C255.505 0.894574 252.976 0.894574 252.096 2.65154L253.438 3.32345Z" fill="white"/>
</svg>
